# xmcd CD database file
#
# Track frame offsets:
#	150
#	3143
#	17520
#	17821
#	31884
#	32186
#	47668
#	69410
#	76252
#	92202
#	111829
#	130487
#	148928
#	173402
#	192935
#	207312
#
# Disc length: 2999 seconds
#
# Revision: 1
# Processed by: cddbd v1.4PL0 Copyright (c) Steve Scherf et al.
# Submitted via: CDex 1.40Release
#
DISCID=ce0bb510
DTITLE=Alexia - Il Cuore A Modo Mio
DYEAR=2003
DGENRE=Pop
TTITLE0=Intro
TTITLE1=Cuore non hai
TTITLE2=Preludio 1
TTITLE3=Saturday Night
TTITLE4=Preludio 2
TTITLE5=Per dire di no
TTITLE6=Crazy War
TTITLE7=Four Jumps
TTITLE8=Egoista
TTITLE9=C'est la vie
TTITLE10=Freddo nell'anima
TTITLE11=Fatti insegnare dalla mamma
TTITLE12=Qualcosa di forte
TTITLE13=Tu mi fai vivere
TTITLE14=I never loved a man(the way i love you)
TTITLE15=Per dire di no-Reprise
EXTD=YEAR: 2003 ID3G: 13
EXTT0=
EXTT1=
EXTT2=
EXTT3=
EXTT4=
EXTT5=
EXTT6=
EXTT7=
EXTT8=
EXTT9=
EXTT10=
EXTT11=
EXTT12=
EXTT13=
EXTT14=
EXTT15=
PLAYORDER=
